<svg xmlns="http://www.w3.org/2000/svg" height="24" viewBox="0 0 24 24" width="24"><path d="M0 0h24v24H0z" fill="none"/><path d="M18.85 8.65l.65.65-.65.65-.65-.65.65-.65M12 4.58l2.5 2.5-2.5 2.5-2.5-2.5 2.5-2.5m9.07 3.07l-1.4-1.4-1.4 1.4 1.4 1.4 1.4-1.4M7.35 15.15l-.65-.65.65-.65.65.65-.65.65M12 19.42l-2.5-2.5 2.5-2.5 2.5 2.5-2.5 2.5m-7.07-3.07l1.4 1.4 1.4-1.4-1.4-1.4-1.4 1.4M18.85 15.35l.65-.65-.65-.65-.65.65.65.65M12 2L9.19 8.63 2 9.24l5.46 4.73L5.82 21 12 17.27 18.18 21l-1.64-7.03L22 9.24l-7.19-.61L12 2z" fill="currentColor"/></svg>